<?xml version="1.0" encoding="UTF-8" standalone="no"?>
<!-- Created with Inkscape (http://www.inkscape.org/) -->

<svg
   width="17.883505mm"
   height="17.857307mm"
   viewBox="0 0 17.883505 17.857307"
   version="1.1"
   id="svg1"
   xml:space="preserve"
   xmlns="http://www.w3.org/2000/svg"
   xmlns:svg="http://www.w3.org/2000/svg"><defs
     id="defs1" /><g
     id="layer2"
     style="display:inline"
     transform="translate(81.593988,-224.10933)"><path
       id="path26"
       style="opacity:1;fill:#ffffff;fill-opacity:1"
       d="m -72.664299,224.10932 c -4.91984,0 -8.929687,4.00778 -8.929687,8.92762 0,4.91984 4.009847,8.92969 8.929687,8.92969 1.529238,0 2.970187,-0.38797 4.230233,-1.06971 l 3.775306,1.01079 a 0.75342345,0.75342345 134.7666 0 0 0.921035,-0.92856 l -1.04075,-3.76417 c 0.664042,-1.24782 1.042314,-2.66991 1.042314,-4.17804 0,-4.91984 -4.008299,-8.92761 -8.928138,-8.92762 z m 0,1.94355 c 3.869645,0 6.984587,3.11442 6.984587,6.98407 0,0.25915 -0.01463,0.51468 -0.04186,0.76636 -0.01488,0.13751 -0.03362,0.27383 -0.05633,0.40876 -0.04541,0.26987 -0.106097,0.5345 -0.181384,0.79272 -0.07529,0.25821 -0.165462,0.50973 -0.268718,0.75447 -0.05163,0.12238 -0.106586,0.24307 -0.164848,0.36174 -0.05826,0.11867 -0.119827,0.23563 -0.184485,0.35036 -0.106911,0.18971 -0.04575,0.90611 0.148333,1.60694 l 0.28885,1.04303 0.149862,0.5426 -0.54467,-0.14572 -1.047193,-0.28 c -0.702531,-0.18784 -1.568809,-0.14138 -1.961409,0.0542 -0.118934,0.0592 -0.239539,0.11489 -0.362252,0.16743 -0.122712,0.0525 -0.247362,0.10168 -0.37362,0.14728 -0.126259,0.0456 -0.254384,0.0877 -0.383956,0.12609 -0.259143,0.0769 -0.524817,0.13925 -0.795817,0.18604 -0.1355,0.0234 -0.272195,0.0429 -0.410311,0.0584 -0.260871,0.0293 -0.525827,0.046 -0.794784,0.046 -3.869646,0 -6.986136,-3.117 -6.986136,-6.98665 0,-3.86965 3.11649,-6.98407 6.986136,-6.98407 z" /></g></svg>
