<?xml version="1.0" encoding="UTF-8" standalone="no"?>
<!-- Created with Inkscape (http://www.inkscape.org/) -->

<svg
   width="14.882811mm"
   height="14.882814mm"
   viewBox="0 0 14.882811 14.882814"
   version="1.1"
   id="svg1"
   xml:space="preserve"
   inkscape:version="1.4 (86a8ad7, 2024-10-11)"
   sodipodi:docname="assets-canvas.svg"
   xmlns:inkscape="http://www.inkscape.org/namespaces/inkscape"
   xmlns:sodipodi="http://sodipodi.sourceforge.net/DTD/sodipodi-0.dtd"
   xmlns="http://www.w3.org/2000/svg"
   xmlns:svg="http://www.w3.org/2000/svg"><sodipodi:namedview
     id="namedview1"
     pagecolor="#ffffff"
     bordercolor="#000000"
     borderopacity="0.25"
     inkscape:showpageshadow="2"
     inkscape:pageopacity="0.0"
     inkscape:pagecheckerboard="0"
     inkscape:deskcolor="#d1d1d1"
     inkscape:document-units="mm"
     inkscape:zoom="2.694845"
     inkscape:cx="35.62357"
     inkscape:cy="1070.748"
     inkscape:window-width="1920"
     inkscape:window-height="1017"
     inkscape:window-x="-8"
     inkscape:window-y="-8"
     inkscape:window-maximized="1"
     inkscape:current-layer="layer2"
     inkscape:export-bgcolor="#ffffff00"><inkscape:page
       x="1.339655e-15"
       y="1.1937891e-14"
       width="14.882812"
       height="14.882813"
       id="page2"
       margin="0"
       bleed="0" /></sodipodi:namedview><defs
     id="defs1" /><g
     inkscape:groupmode="layer"
     id="layer2"
     inkscape:label="Layer 2"
     style="display:inline"
     transform="translate(-37.43854,-305.60151)"><path
       id="path16"
       style="fill:#ffffff;stroke-width:0.26038"
       d="m 41.395923,305.6015 a 3.9576267,3.9576267 0 0 0 -0.653707,0.0641 3.9576267,3.9576267 0 0 0 -3.303674,3.8933 v 6.96805 a 3.9576267,3.9576267 0 0 0 3.957381,3.95738 h 6.96805 a 3.9576267,3.9576267 0 0 0 3.957381,-3.95738 v -6.96805 a 3.9576267,3.9576267 0 0 0 -3.957381,-3.95738 z m 0.689363,1.47278 h 5.589323 a 3.1743788,3.1743788 0 0 1 3.173967,3.17397 v 5.58932 a 3.1743788,3.1743788 0 0 1 -3.173967,3.17397 h -5.589323 a 3.1743788,3.1743788 0 0 1 -3.173966,-3.17397 v -5.58932 a 3.1743788,3.1743788 0 0 1 2.649967,-3.12281 3.1743788,3.1743788 0 0 1 0.523999,-0.0512 z m 2.709913,1.46038 c -0.475934,0 -0.858863,0.38292 -0.858863,0.85886 v 2.7249 h -2.724898 c -0.475934,0 -0.858862,0.38292 -0.858862,0.85886 0,0.47593 0.382928,0.85938 0.858862,0.85938 h 2.724898 v 2.72438 c 0,0.47593 0.382929,0.85886 0.858863,0.85886 0.475933,0 0.858862,-0.38293 0.858862,-0.85886 v -2.72438 h 2.724898 c 0.475934,0 0.858862,-0.38345 0.858862,-0.85938 0,-0.47594 -0.382928,-0.85886 -0.858862,-0.85886 h -2.724898 v -2.7249 c 0,-0.47594 -0.382929,-0.85886 -0.858862,-0.85886 z" /></g></svg>
