<?xml version="1.0" encoding="UTF-8" standalone="no"?>
<!-- Created with Inkscape (http://www.inkscape.org/) -->

<svg
   width="15.157731mm"
   height="15.157732mm"
   viewBox="0 0 15.157731 15.157732"
   version="1.1"
   id="svg1"
   xml:space="preserve"
   xmlns="http://www.w3.org/2000/svg"
   xmlns:svg="http://www.w3.org/2000/svg"><defs
     id="defs1" /><g
     id="layer2"
     transform="translate(-37.234936,-156.27161)"><path
       id="path7"
       style="fill:#ffffff;stroke-width:0.206504"
       d="m 44.816161,156.5349 a 7.3157596,7.3157596 0 0 0 -7.315823,7.31582 7.3157596,7.3157596 0 0 0 7.315823,7.31582 7.3157596,7.3157596 0 0 0 7.315824,-7.31582 7.3157596,7.3157596 0 0 0 -7.315824,-7.31582 z m 0,1.1927 a 6.1229726,6.1229726 0 0 1 6.123124,6.12312 6.1229726,6.1229726 0 0 1 -6.123124,6.12262 6.1229726,6.1229726 0 0 1 -6.123123,-6.12262 6.1229726,6.1229726 0 0 1 6.123123,-6.12312 z m 3.013924,2.68569 c -0.01884,-7e-4 -0.03793,-2.3e-4 -0.05736,0.002 -0.03183,0.003 -0.06327,0.009 -0.09378,0.0185 l -4.021558,1.25705 c -0.489791,0.15298 -0.869075,0.54315 -1.008133,1.03707 L 41.5224,166.736 c -0.09584,0.34073 0.22426,0.65201 0.56218,0.54671 l 4.021558,-1.25655 c 0.48991,-0.15307 0.869218,-0.54345 1.008133,-1.03756 l 1.127353,-4.00809 c 0.07927,-0.28179 -0.128942,-0.55622 -0.411534,-0.56667 z m -1.33287,1.52093 c 0.173723,-0.0154 0.309096,0.14787 0.261885,0.31576 l -0.630021,2.23924 c -0.07762,0.27602 -0.563178,0.57964 -0.563178,0.57964 l -1.931465,-1.84267 c 0,0 0.289504,-0.49411 0.563178,-0.57964 l 2.246725,-0.70186 c 0.0172,-0.005 0.03492,-0.009 0.05288,-0.0105 z"
       transform="matrix(1.0359552,0,0,1.0359552,-1.6137334,-5.8915407)" /></g></svg>
