<?xml version="1.0" encoding="UTF-8" standalone="no"?>
<!-- Created with Inkscape (http://www.inkscape.org/) -->

<svg
   width="14.992882mm"
   height="14.858154mm"
   viewBox="0 0 14.992882 14.858154"
   version="1.1"
   id="svg1"
   xml:space="preserve"
   xmlns="http://www.w3.org/2000/svg"
   xmlns:svg="http://www.w3.org/2000/svg"><defs
     id="defs1" /><g
     id="layer2"
     transform="translate(-37.317098,-82.018624)"><path
       style="opacity:1;fill:#ffffff;fill-opacity:1;stroke-width:0.274104"
       d="m 37.317102,89.302259 v 6.91129 a 0.66322459,0.66322459 45 0 0 0.663225,0.663225 h 4.270624 a 0.66322459,0.66322459 135 0 0 0.663225,-0.663225 v -3.932877 c 0,-1.038234 0.835554,-1.873787 1.873788,-1.873787 1.038234,0 1.874304,0.835553 1.874304,1.873787 v 3.932877 a 0.66322459,0.66322459 45 0 0 0.663225,0.663225 h 4.321267 a 0.66322459,0.66322459 135 0 0 0.663225,-0.663225 v -6.91129 A 1.5086805,1.5086805 66.269434 0 0 51.821309,88.190634 L 45.30222,82.20885 a 0.72279765,0.72279765 1.9037195e-6 0 0 -0.977352,0 l -6.51909,5.981784 a 1.5086804,1.5086804 113.73057 0 0 -0.488676,1.111625 z"
       id="rect2" /></g></svg>
