<?xml version="1.0" encoding="UTF-8" standalone="no"?>
<!-- Created with Inkscape (http://www.inkscape.org/) -->

<svg
   width="18.418934mm"
   height="16.120689mm"
   viewBox="0 0 18.418934 16.120689"
   version="1.1"
   id="svg1"
   xml:space="preserve"
   xmlns="http://www.w3.org/2000/svg"
   xmlns:svg="http://www.w3.org/2000/svg"><defs
     id="defs1" /><g
     id="layer2"
     style="display:inline"
     transform="translate(113.61793,-224.99387)"><path
       style="opacity:1;fill:#ffffff;fill-opacity:1"
       d="m -108.09375,224.99609 c -2.51684,-0.0694 -4.16979,1.49526 -4.91797,3.00196 -1.11229,2.23993 -0.7166,5.04397 1.375,7.21289 1.81167,1.87861 4.35237,3.96506 6.05833,5.46151 0.66659,0.58471 1.71064,0.59251 2.37555,0.005 1.73891,-1.53609 4.260979,-3.67786 5.986043,-5.46666 2.081463,-2.1584 2.543776,-4.92634 1.427735,-7.17383 -0.748183,-1.5067 -2.401131,-3.07134 -4.917968,-3.00195 -1.83515,0.0506 -3.0039,0.76828 -3.68555,1.54296 -0.67364,-0.79253 -1.85109,-1.53102 -3.70117,-1.58203 z m -0.0508,1.70662 c 1.50963,0.0416 2.11376,0.66079 2.45508,1.10393 0.34131,0.44315 0.57324,0.80664 0.57324,0.80664 l 0.50481,0.79125 a 0.2305349,0.2305349 0.52152292 0 0 0.38641,0.004 l 0.49647,-0.74781 c 0,0 0.25531,-0.38818 0.59961,-0.82421 0.3443,-0.43604 0.95761,-1.05245 2.47071,-1.09417 1.777087,-0.049 2.712008,1.05001 3.236325,2.10589 0.780519,1.57181 0.555576,3.37319 -1.107422,5.09765 -1.617863,1.67764 -5.151813,4.70504 -5.871093,5.32422 -0.72396,-0.61581 -4.31075,-3.65154 -5.92383,-5.32422 -1.65285,-1.71394 -1.84091,-3.55735 -1.05664,-5.13672 0.52432,-1.05587 1.45923,-2.15487 3.23633,-2.10588 z"
       id="path32" /></g></svg>
