<?xml version="1.0" encoding="UTF-8" standalone="no"?>
<!-- Created with Inkscape (http://www.inkscape.org/) -->

<svg
   width="14.76809mm"
   height="14.798548mm"
   viewBox="0 0 14.76809 14.798548"
   version="1.1"
   id="svg1"
   xml:space="preserve"
   xmlns="http://www.w3.org/2000/svg"
   xmlns:svg="http://www.w3.org/2000/svg"><defs
     id="defs1" /><g
     id="layer2"
     style="display:inline"
     transform="translate(-37.429756,-231.08202)"><path
       id="path23"
       style="fill:#ffffff;stroke-width:0.505576"
       d="m 44.813802,231.08202 a 7.3842297,7.1421232 0 0 0 -7.384045,7.1422 7.3842297,7.1421232 0 0 0 2.499072,5.34954 v 1.6397 c 0,0.45073 0.471984,0.78208 0.896069,0.62942 l 2.046904,-0.73691 a 7.3842297,7.1421232 0 0 0 1.942,0.26045 7.3842297,7.1421232 0 0 0 7.384045,-7.1422 7.3842297,7.1421232 0 0 0 -7.384045,-7.1422 z m 0,1.02371 a 6.3258963,6.1184893 0 0 1 6.325712,6.11849 6.3258963,6.1184893 0 0 1 -6.325712,6.11849 6.3258963,6.1184893 0 0 1 -0.882633,-0.0672 6.3258963,6.1184893 0 0 1 -0.760161,-0.15658 l -0.694531,0.25166 0.0047,0.003 -0.828373,0.29818 -0.901237,0.32401 v -0.81442 -0.82889 -0.46406 a 6.3258963,6.1184893 0 0 1 -0.822689,-0.8046 6.3258963,6.1184893 0 0 1 -1.440739,-3.85971 6.3258963,6.1184893 0 0 1 6.325712,-6.11849 z m 3.885551,4.35115 a 0.10513267,0.10513267 0 0 0 -0.05323,0.0207 l -1.997811,1.50533 a 0.71628344,0.71628344 0 0 1 -0.833024,0.0207 l -2.10323,-1.42524 a 0.51442917,0.51442917 0 0 0 -0.723987,0.15142 l -2.160075,3.42718 a 0.1041738,0.1041738 0 0 0 0.148828,0.14004 l 1.917196,-1.37304 a 0.77175085,0.77175085 0 0 1 0.852661,-0.03 l 2.112532,1.29552 a 0.54685547,0.54685547 0 0 0 0.744141,-0.16743 l 1.936316,-2.96778 0.259932,-0.43925 A 0.10513267,0.10513267 0 0 0 48.69935,236.4569 Z" /></g></svg>
