<?xml version="1.0" encoding="UTF-8" standalone="no"?>
<!-- Created with Inkscape (http://www.inkscape.org/) -->

<svg
   width="15.561776mm"
   height="13.44876mm"
   viewBox="0 0 15.561776 13.44876"
   version="1.1"
   id="svg1"
   xml:space="preserve"
   inkscape:version="1.4 (86a8ad7, 2024-10-11)"
   sodipodi:docname="assets-canvas.svg"
   xmlns:inkscape="http://www.inkscape.org/namespaces/inkscape"
   xmlns:sodipodi="http://sodipodi.sourceforge.net/DTD/sodipodi-0.dtd"
   xmlns="http://www.w3.org/2000/svg"
   xmlns:svg="http://www.w3.org/2000/svg"><sodipodi:namedview
     id="namedview1"
     pagecolor="#ffffff"
     bordercolor="#000000"
     borderopacity="0.25"
     inkscape:showpageshadow="2"
     inkscape:pageopacity="0.0"
     inkscape:pagecheckerboard="0"
     inkscape:deskcolor="#d1d1d1"
     inkscape:document-units="mm"
     inkscape:zoom="2.694845"
     inkscape:cx="35.62357"
     inkscape:cy="1070.748"
     inkscape:window-width="1920"
     inkscape:window-height="1017"
     inkscape:window-x="-8"
     inkscape:window-y="-8"
     inkscape:window-maximized="1"
     inkscape:current-layer="layer2"
     inkscape:export-bgcolor="#ffffff00"><inkscape:page
       x="0"
       y="0"
       width="15.561776"
       height="13.44876"
       id="page2"
       margin="0"
       bleed="0" /></sodipodi:namedview><defs
     id="defs1"><inkscape:path-effect
       effect="fillet_chamfer"
       id="path-effect14"
       is_visible="true"
       lpeversion="1"
       nodesatellites_param="F,0,0,1,0,0,0,1 @ F,0,0,1,0,0,0,1 @ F,0,0,1,0,0,0,1 @ F,0,0,1,0,0,0,1 @ F,0,0,1,0,0,0,1 @ F,0,0,1,0,0,0,1 @ F,0,0,1,0,0,0,1 @ F,0,0,1,0,0,0,1 @ F,0,0,1,0,0,0,1 @ F,0,0,1,0,0,0,1 @ F,0,0,1,0,0,0,1 @ F,0,0,1,0,0,0,1 @ F,0,0,1,0,0,0,1 | F,0,0,1,0,0,0,1 @ F,0,0,1,0,0,0,1 @ F,0,0,1,0,0,0,1 @ F,0,0,1,0,0,0,1 @ F,0,0,1,0,0,0,1 @ F,0,0,1,0,0,0,1 @ F,0,0,1,0,0,0,1 @ F,0,0,1,0,0,0,1 @ F,0,0,1,0,0,0,1 @ F,0,0,1,0,0,0,1 @ F,0,0,1,0,0,0,1 @ F,0,0,1,0,0,0,1"
       radius="0"
       unit="px"
       method="auto"
       mode="F"
       chamfer_steps="1"
       flexible="false"
       use_knot_distance="true"
       apply_no_radius="true"
       apply_with_radius="true"
       only_selected="false"
       hide_knots="false" /></defs><g
     inkscape:groupmode="layer"
     id="layer2"
     inkscape:label="Layer 2"
     style="display:inline"
     transform="translate(-37.112466,-269.01666)"><path
       id="circle3"
       style="fill:#ffffff;stroke-width:1.21035"
       d="m 41.702364,269.01665 c -2.534919,4e-5 -4.589865,2.05499 -4.589901,4.58991 0.0013,1.34889 0.595863,2.62892 1.625741,3.50004 h -0.0052 l 5.67614,5.17126 c 0.274374,0.25007 0.694042,0.25007 0.968416,0 l 5.726782,-5.21467 h -0.0021 c 0.99839,-0.87128 1.571521,-2.13152 1.571997,-3.45663 -3.6e-5,-2.53492 -2.054982,-4.58987 -4.589901,-4.58991 -1.249807,0.007 -2.442701,0.52342 -3.303157,1.42989 0.03663,-0.0419 0.07401,-0.083 0.112138,-0.12351 -0.853473,-0.83362 -1.99799,-1.30218 -3.19102,-1.30638 z m 0.542086,1.14154 c 0.990288,0.003 1.940498,1.00353 2.648934,1.69548 -0.03165,0.0336 -0.06261,0.0681 -0.09302,0.10284 0.714232,-0.75243 1.704535,-1.79251 2.741952,-1.79832 2.104139,3e-5 3.809556,1.3711 3.809586,3.47524 -3.95e-4,1.09992 -0.676609,2.48072 -1.505334,3.20394 h 0.0016 l -4.954736,4.4266 -4.946468,-4.39043 h 0.0047 c -0.854863,-0.72308 -1.515625,-2.12045 -1.516704,-3.24011 3e-5,-2.10414 1.705447,-3.47521 3.809587,-3.47524 z"
       sodipodi:nodetypes="ccccccccccccccccccccccccccc"
       inkscape:path-effect="#path-effect14"
       inkscape:original-d="m 41.702364,269.01665 c -2.534919,4e-5 -4.589865,2.05499 -4.589901,4.58991 0.0013,1.34889 0.595863,2.62892 1.625741,3.50004 h -0.0052 l 5.67614,5.17126 c 0.274374,0.25007 0.694042,0.25007 0.968416,0 l 5.726782,-5.21467 h -0.0021 c 0.99839,-0.87128 1.571521,-2.13152 1.571997,-3.45663 -3.6e-5,-2.53492 -2.054982,-4.58987 -4.589901,-4.58991 -1.249807,0.007 -2.442701,0.52342 -3.303157,1.42989 0.03663,-0.0419 0.07401,-0.083 0.112138,-0.12351 -0.853473,-0.83362 -1.99799,-1.30218 -3.19102,-1.30638 z m 0.542086,1.14154 c 0.990288,0.003 1.940498,1.00353 2.648934,1.69548 -0.03165,0.0336 -0.06261,0.0681 -0.09302,0.10284 0.714232,-0.75243 1.704535,-1.79251 2.741952,-1.79832 2.104139,3e-5 3.809556,1.3711 3.809586,3.47524 -3.95e-4,1.09992 -0.676609,2.48072 -1.505334,3.20394 h 0.0016 l -4.954736,4.4266 -4.946468,-4.39043 h 0.0047 c -0.854863,-0.72308 -1.515625,-2.12045 -1.516704,-3.24011 3e-5,-2.10414 1.705447,-3.47521 3.809587,-3.47524 z"
       inkscape:export-filename="..\notifications.svg"
       inkscape:export-xdpi="96"
       inkscape:export-ydpi="96" /></g></svg>
