<?xml version="1.0" encoding="UTF-8" standalone="no"?>
<!-- Created with Inkscape (http://www.inkscape.org/) -->

<svg
   width="14.882811mm"
   height="14.882814mm"
   viewBox="0 0 14.882811 14.882814"
   version="1.1"
   id="svg1"
   xml:space="preserve"
   xmlns="http://www.w3.org/2000/svg"
   xmlns:svg="http://www.w3.org/2000/svg"><defs
     id="defs1" /><g
     id="layer2"
     style="display:inline"
     transform="translate(-37.43854,-193.67501)"><path
       id="path10"
       style="fill:#ffffff;stroke-width:0.258066"
       d="m 41.426893,193.74115 a 3.9224478,3.9224478 0 0 0 -0.647896,0.0635 3.9224478,3.9224478 0 0 0 -3.274309,3.85869 v 6.90612 a 3.9224478,3.9224478 0 0 0 3.922205,3.9222 h 6.906112 a 3.9224478,3.9224478 0 0 0 3.922204,-3.9222 v -6.90612 a 3.9224478,3.9224478 0 0 0 -3.922204,-3.9222 z m 1.285037,1.37672 h 2.892228 l 1.249185,2.16341 h -2.892229 z m 4.373427,0 h 0.602825 a 3.1902576,3.1902576 0 0 1 3.018223,2.16341 h -2.371864 z m -5.637977,0.0702 a 3.1902576,3.1902576 0 0 0 -0.12958,0.0282 3.1902576,3.1902576 0 0 1 0.117288,-0.0266 3.1902576,3.1902576 0 0 1 0.01229,-0.002 z m -0.156212,0.0343 1.188748,2.05893 h -3.407473 a 3.1902576,3.1902576 0 0 1 2.218725,-2.05893 z m -2.409764,3.37008 h 11.99709 v 5.33221 a 3.1902576,3.1902576 0 0 1 -3.190312,3.19032 h -5.616466 a 3.1902576,3.1902576 0 0 1 -3.190312,-3.19032 z m 4.720166,1.557 a 0.55649726,0.5847931 0 0 0 -0.514731,0.58285 v 1.95752 1.95752 a 0.5564949,0.58479062 0 0 0 0.834326,0.50653 l 1.613338,-0.97875 1.613338,-0.97876 a 0.55649589,0.58479166 0 0 0 0,-1.01308 l -1.613338,-0.97876 -1.613338,-0.97875 a 0.55649726,0.5847931 0 0 0 -0.319595,-0.0763 z"
       transform="matrix(1.0089686,0,0,1.0089686,-0.40251126,-1.8037372)" /></g></svg>
