<?xml version="1.0" encoding="UTF-8" standalone="no"?>
<!-- Created with Inkscape (http://www.inkscape.org/) -->

<svg
   width="14.717553mm"
   height="14.675518mm"
   viewBox="0 0 14.717553 14.675518"
   version="1.1"
   id="svg1"
   xml:space="preserve"
   xmlns="http://www.w3.org/2000/svg"
   xmlns:svg="http://www.w3.org/2000/svg"><defs
     id="defs1" /><g
     id="layer2"
     transform="translate(-37.48505,-119.33742)"><path
       id="circle1"
       style="fill:#ffffff;stroke-width:0.154031"
       d="m 43.815413,119.33742 c -3.496151,3e-5 -6.330335,2.83421 -6.330363,6.33036 2.8e-5,3.49615 2.834212,6.33033 6.330363,6.33036 1.470258,-0.003 2.893553,-0.51808 4.025594,-1.45624 l 3.309069,3.33637 a 0.45526023,0.45526023 179.99733 0 0 0.646505,-3e-5 l 0.271816,-0.2741 a 0.46288751,0.46288751 89.997126 0 0 -3.3e-5,-0.6519 l -3.315784,-3.3431 c 0.897301,-1.11813 1.388496,-2.50772 1.393196,-3.94136 -2.8e-5,-3.49615 -2.834212,-6.33033 -6.330363,-6.33036 z m 0,1.33997 c 2.756259,-1.4e-4 4.990763,2.23413 4.99091,4.99039 -5.77e-4,1.07818 -0.350303,2.12718 -0.996838,2.99 0,0 -0.0036,0.004 -0.0036,0.004 -0.05115,0.0684 -0.104054,0.13539 -0.158647,0.20103 -0.05483,0.0659 -0.111349,0.13031 -0.169499,0.19327 0,0 -0.0031,0.004 -0.0031,0.004 -0.0031,0.003 -0.0062,0.007 -0.0093,0.01 -0.05377,0.0578 -0.10891,0.11432 -0.165365,0.1695 -0.01064,0.0101 -0.02132,0.02 -0.03204,0.03 -0.05363,0.052 -0.10842,0.10287 -0.164331,0.15245 0,0 -0.0036,0.003 -0.0036,0.003 -0.0065,0.005 -0.01308,0.0107 -0.01964,0.016 -0.05943,0.0517 -0.120085,0.10204 -0.181901,0.15089 -0.879103,0.69105 -1.964815,1.06685 -3.083016,1.06712 -2.75626,-1.5e-4 -4.990533,-2.23465 -4.990393,-4.99091 1.47e-4,-2.75606 2.234336,-4.99024 4.990393,-4.99039 z m 4.397665,9.52655 c -0.02545,0.0252 -0.05112,0.0502 -0.077,0.0749 0.02588,-0.0248 0.05155,-0.0497 0.077,-0.0749 z" /></g></svg>
